<svg width="48" height="49" viewBox="0 0 48 49" fill="none" xmlns="http://www.w3.org/2000/svg">
<path d="M21.739 33.4665C21.623 33.3535 21.127 32.9268 20.719 32.5294C18.153 30.1991 13.953 24.1202 12.671 20.9385C12.465 20.4553 12.029 19.2337 12.001 18.581C12.001 17.9556 12.145 17.3594 12.437 16.7904C12.845 16.0812 13.487 15.5123 14.245 15.2006C14.771 14.9999 16.345 14.6882 16.373 14.6882C18.095 14.3764 20.893 14.205 23.985 14.205C26.931 14.205 29.615 14.3764 31.363 14.6316C31.391 14.6609 33.347 14.9726 34.017 15.3136C35.241 15.939 36.001 17.1606 36.001 18.468V18.581C35.971 19.4324 35.211 21.223 35.183 21.223C33.899 24.2332 29.905 30.1718 27.251 32.5586C27.251 32.5586 26.569 33.2308 26.143 33.523C25.531 33.9789 24.773 34.205 24.015 34.205C23.169 34.205 22.381 33.9497 21.739 33.4665Z" fill="black"/>
</svg>
