<svg width="27" height="27" viewBox="0 0 27 27" fill="none" xmlns="http://www.w3.org/2000/svg">
<path d="M13.6592 7.41363C13.3959 7.55565 13.2318 7.8257 13.2318 8.11942V12.693H4.20108C3.74508 12.693 3.375 13.0546 3.375 13.5C3.375 13.9454 3.74508 14.3069 4.20108 14.3069H13.2318V18.8805C13.2318 19.1753 13.3959 19.4454 13.6592 19.5863C13.9224 19.7294 14.244 19.7197 14.4985 19.5637L23.2395 14.1832C23.4796 14.0347 23.625 13.7776 23.625 13.5C23.625 13.2224 23.4796 12.9653 23.2395 12.8168L14.4985 7.43623C14.3641 7.35446 14.211 7.3125 14.0579 7.3125C13.9213 7.3125 13.7836 7.34693 13.6592 7.41363Z" fill="#F17A64"/>
</svg>
