<svg width="20" height="20" viewBox="0 0 20 20" fill="none" xmlns="http://www.w3.org/2000/svg">
<path d="M9.99999 1.66663C5.48249 1.66663 1.66666 5.48246 1.66666 9.99996C1.66666 14.5175 5.48249 18.3333 9.99999 18.3333C14.5175 18.3333 18.3333 14.5175 18.3333 9.99996C18.3333 5.48246 14.5175 1.66663 9.99999 1.66663ZM9.99999 5.83329C11.4392 5.83329 12.5 6.89329 12.5 8.33329C12.5 9.77329 11.4392 10.8333 9.99999 10.8333C8.56166 10.8333 7.49999 9.77329 7.49999 8.33329C7.49999 6.89329 8.56166 5.83329 9.99999 5.83329ZM5.74499 13.9766C6.49249 12.8766 7.73916 12.1433 9.16666 12.1433H10.8333C12.2617 12.1433 13.5075 12.8766 14.255 13.9766C13.19 15.1166 11.6792 15.8333 9.99999 15.8333C8.32082 15.8333 6.80999 15.1166 5.74499 13.9766Z" fill="#404040"/>
</svg>
