<svg width="26" height="26" viewBox="0 0 26 26" fill="none" xmlns="http://www.w3.org/2000/svg">
<g clip-path="url(#clip0_63_32)">
<path d="M23.8333 13.7222C23.7383 13.7227 23.644 13.7045 23.556 13.6686C23.4681 13.6326 23.388 13.5797 23.3205 13.5127L13 3.18496L2.67942 13.5127C2.54126 13.6311 2.36354 13.6929 2.18177 13.6859C2.00001 13.6788 1.82759 13.6035 1.69896 13.4749C1.57034 13.3462 1.49499 13.1738 1.48797 12.9921C1.48094 12.8103 1.54277 12.6326 1.66109 12.4944L12.4944 1.66107C12.6297 1.52655 12.8128 1.45105 13.0036 1.45105C13.1944 1.45105 13.3774 1.52655 13.5128 1.66107L24.3461 12.4944C24.4455 12.5958 24.5128 12.7242 24.5396 12.8636C24.5664 13.0031 24.5515 13.1473 24.4968 13.2783C24.442 13.4093 24.3499 13.5213 24.2319 13.6002C24.1139 13.6792 23.9753 13.7216 23.8333 13.7222V13.7222Z" fill="white"/>
<path d="M13 5.6261L4.33337 14.3217V23.1111C4.33337 23.4942 4.48556 23.8616 4.75644 24.1325C5.02733 24.4034 5.39473 24.5555 5.77782 24.5555H10.8334V17.3333H15.1667V24.5555H20.2223C20.6054 24.5555 20.9728 24.4034 21.2436 24.1325C21.5145 23.8616 21.6667 23.4942 21.6667 23.1111V14.2711L13 5.6261Z" fill="white"/>
</g>
<defs>
<clipPath id="clip0_63_32">
<rect width="26" height="26" fill="white"/>
</clipPath>
</defs>
</svg>
