<svg width="19" height="19" viewBox="0 0 19 19" fill="none" xmlns="http://www.w3.org/2000/svg">
<path d="M12.7167 2.98591C12.7979 2.93825 12.8689 2.87496 12.9255 2.79971C12.9821 2.72446 13.0232 2.63874 13.0464 2.5475C13.0697 2.45626 13.0747 2.36131 13.061 2.26815C13.0474 2.17498 13.0154 2.08545 12.9669 2.00472C12.9185 1.92399 12.8545 1.85366 12.7787 1.79781C12.7029 1.74196 12.6167 1.70169 12.5253 1.67932C12.4338 1.65696 12.3388 1.65295 12.2458 1.66752C12.1528 1.68209 12.0635 1.71495 11.9833 1.76421C10.7037 2.53181 9.7603 3.45996 9.1523 4.74246C8.5538 6.00596 8.3125 7.54971 8.3125 9.50006V14.6681L5.7285 12.0841C5.66327 12.0141 5.58461 11.9579 5.49721 11.919C5.40981 11.88 5.31547 11.8591 5.2198 11.8574C5.12413 11.8557 5.0291 11.8733 4.94038 11.9091C4.85167 11.945 4.77107 11.9983 4.70342 12.066C4.63576 12.1336 4.58242 12.2142 4.54659 12.3029C4.51075 12.3917 4.49315 12.4867 4.49484 12.5824C4.49653 12.678 4.51747 12.7724 4.55641 12.8598C4.59535 12.9472 4.6515 13.0258 4.7215 13.0911L8.5215 16.8911C8.6551 17.0245 8.83619 17.0994 9.025 17.0994C9.21382 17.0994 9.39491 17.0245 9.5285 16.8911L13.3285 13.0911C13.4544 12.956 13.5229 12.7774 13.5196 12.5928C13.5164 12.4082 13.4416 12.2321 13.311 12.1015C13.1805 11.971 13.0044 11.8962 12.8198 11.8929C12.6352 11.8897 12.4566 11.9582 12.3215 12.0841L9.7375 14.6681V9.50006C9.7375 7.65041 9.97025 6.34511 10.4405 5.35236C10.9022 4.37766 11.6214 3.64331 12.7167 2.98686V2.98591Z" fill="#001E6A"/>
</svg>
